<?xml version="1.0" encoding="iso-8859-1"?>
<!-- Generator: Adobe Illustrator 19.0.0, SVG Export Plug-In . SVG Version: 6.00 Build 0)  -->
<svg version="1.1" id="Capa_1" xmlns="http://www.w3.org/2000/svg" xmlns:xlink="http://www.w3.org/1999/xlink" x="0px" y="0px"
	 viewBox="0 0 512 512" style="enable-background:new 0 0 512 512;" xml:space="preserve">
<circle style="fill:#005C83;" cx="256" cy="256" r="256"/>
<path style="fill:#00263F;" d="M512,256c0-7.041-0.297-14.012-0.854-20.91l-85.539-85.539L355,124.384H248.051l-25.167,25.167
	l-59.217-59.218L144.374,349.48L47,370.333l128.852,128.852C201.066,507.49,228.005,512,256,512C397.385,512,512,397.385,512,256z"
	/>
<rect x="135.67" y="90.33" style="fill:#E0E0E0;" width="28" height="197.33"/>
<rect x="47" y="271.33" style="fill:#FFFFFF;" width="418" height="99"/>
<rect x="255" y="271.33" style="fill:#E0E0E0;" width="210" height="99"/>
<circle style="fill:#35CCFF;" cx="428.33" cy="320.83" r="13.333"/>
<circle style="fill:#97CC52;" cx="375.33" cy="320.83" r="13.333"/>
<g>
	<circle style="fill:#35CCFF;" cx="322.33" cy="320.83" r="13.333"/>
	<circle style="fill:#35CCFF;" cx="269.33" cy="320.83" r="13.333"/>
</g>
<g>
	<path style="fill:#97CC52;" d="M260.979,211.471l-21.215-21.212c19.384-19.387,45.157-30.064,72.571-30.066
		s53.188,10.673,72.572,30.058l-21.213,21.213c-13.718-13.718-31.957-21.272-51.357-21.271S274.697,197.75,260.979,211.471z"/>
	<path style="fill:#97CC52;" d="M303.061,253.548l-21.219-21.208c8.144-8.148,18.972-12.637,30.491-12.639c0.003,0,0.007,0,0.011,0
		c11.516,0,22.341,4.484,30.484,12.626l-21.213,21.214c-2.477-2.477-5.77-3.84-9.271-3.84c-0.001,0-0.002,0-0.003,0
		C308.835,249.702,305.54,251.068,303.061,253.548z"/>
	<path style="fill:#97CC52;" d="M220.279,170.771l-21.214-21.212c30.255-30.258,70.482-46.923,113.27-46.924
		s83.015,16.66,113.271,46.916l-21.213,21.213c-24.589-24.589-57.283-38.13-92.057-38.129S244.869,146.18,220.279,170.771z"/>
</g>
<g>
	<path style="fill:#60C344;" d="M312.335,160.193c0,0-0.001,0-0.002,0v30c0.001,0,0.002,0,0.004,0
		c19.4-0.001,37.639,7.553,51.357,21.271l21.213-21.213C365.523,170.866,339.75,160.191,312.335,160.193z"/>
	<path style="fill:#60C344;" d="M312.343,219.701c-0.003,0-0.007,0-0.01,0v30c0.002,0,0.004,0,0.007,0c0.001,0,0.002,0,0.003,0
		c3.502,0,6.795,1.364,9.271,3.84l21.213-21.214C334.685,224.185,323.859,219.701,312.343,219.701z"/>
	<path style="fill:#60C344;" d="M312.335,102.635c0,0-0.001,0-0.002,0v30c0.001,0,0.002,0,0.003,0
		c34.774-0.001,67.468,13.54,92.057,38.129l21.213-21.213C395.351,119.295,355.124,102.633,312.335,102.635z"/>
</g>
<g>
</g>
<g>
</g>
<g>
</g>
<g>
</g>
<g>
</g>
<g>
</g>
<g>
</g>
<g>
</g>
<g>
</g>
<g>
</g>
<g>
</g>
<g>
</g>
<g>
</g>
<g>
</g>
<g>
</g>
</svg>
